<svg width="1vw" viewBox="0 0 15 15" fill="none" xmlns="http://www.w3.org/2000/svg">
<path d="M14.6581 2.23999e-07H13.2691C13.2215 -5.35148e-05 13.1744 0.00956251 13.1306 0.0282652C13.0869 0.0469679 13.0473 0.0743675 13.0145 0.108803C12.9816 0.143238 12.956 0.183991 12.9394 0.228591C12.9227 0.273191 12.9153 0.320708 12.9176 0.368262L13.0348 2.79287C12.3534 1.98999 11.5053 1.34519 10.5495 0.903345C9.59365 0.4615 8.55302 0.233216 7.5 0.234375C3.49629 0.234375 0.231447 3.50186 0.234377 7.50557C0.237307 11.5157 3.48926 14.7656 7.5 14.7656C9.29914 14.7682 11.0348 14.1007 12.3686 12.8933C12.4042 12.8614 12.4329 12.8226 12.4531 12.7792C12.4732 12.7358 12.4842 12.6888 12.4855 12.641C12.4869 12.5932 12.4784 12.5456 12.4607 12.5012C12.443 12.4568 12.4164 12.4164 12.3826 12.3826L11.3865 11.3865C11.3235 11.3235 11.2389 11.2868 11.1498 11.2838C11.0607 11.2808 10.9738 11.3118 10.9066 11.3704C10.1196 12.0629 9.14012 12.499 8.09887 12.6206C7.05762 12.7422 6.00403 12.5436 5.07856 12.0511C4.15309 11.5587 3.39971 10.7958 2.91886 9.86427C2.438 8.93272 2.25252 7.87674 2.38713 6.83709C2.52174 5.79743 2.97006 4.82351 3.67231 4.04515C4.37456 3.26678 5.29738 2.72097 6.31775 2.48046C7.33812 2.23995 8.40756 2.31617 9.3835 2.69897C10.3594 3.08177 11.1955 3.75295 11.7803 4.62305L8.80576 4.48037C8.75821 4.47811 8.71069 4.48553 8.66609 4.50218C8.62149 4.51884 8.58074 4.54437 8.5463 4.57725C8.51187 4.61012 8.48447 4.64965 8.46577 4.69342C8.44706 4.7372 8.43745 4.78433 8.4375 4.83193V6.2209C8.4375 6.31414 8.47454 6.40356 8.54047 6.46949C8.6064 6.53542 8.69582 6.57246 8.78906 6.57246H14.6581C14.7513 6.57246 14.8408 6.53542 14.9067 6.46949C14.9726 6.40356 15.0097 6.31414 15.0097 6.2209V0.351563C15.0097 0.258323 14.9726 0.168901 14.9067 0.102971C14.8408 0.0370397 14.7513 2.23999e-07 14.6581 2.23999e-07Z" fill="#FF0000"/>
</svg>
