<svg  viewBox="0 0 334 48" fill="none" xmlns="http://www.w3.org/2000/svg">
<path d="M5.16211 47.1719V30.707H0.767578V30.4141L2.4375 26.8984H5.16211V3.22656L8.26758 1.76172H26.8418V2.05469L25.1719 5.57031H11.0215V26.8984H24.791V27.1914L23.1211 30.707H11.0215V44.5352L5.45508 47.1719H5.16211ZM74.4492 41.8984C77.2422 41.8984 79.5176 40.8926 81.2754 38.8809C82.6816 37.2598 83.3848 35.1406 83.3848 32.5234V15.2383C83.3848 12.6211 82.6816 10.502 81.2754 8.88086C79.5371 6.86914 77.2617 5.86328 74.4492 5.86328C71.6172 5.86328 69.3418 6.86914 67.623 8.88086C66.2168 10.502 65.5137 12.6211 65.5137 15.2383V32.5234C65.5137 35.1016 66.2168 37.2207 67.623 38.8809C69.3223 40.8926 71.5977 41.8984 74.4492 41.8984ZM74.4492 47.1719C69.9961 47.1719 66.3828 45.7559 63.6094 42.9238C60.9727 40.2285 59.6543 36.7617 59.6543 32.5234V12.0156L74.4492 0.589844C78.9023 0.589844 82.5156 2.00586 85.2891 4.83789C87.9258 7.5332 89.2441 11 89.2441 15.2383V35.7461L74.4492 47.1719ZM124.4 47.1719V3.22656L129.967 0.589844H130.26V35.5996C132.857 34.7793 135.426 33.5488 137.965 31.9082L133.482 25.4922L138.639 23.0312H138.932L142.623 28.334C145.572 25.4629 147.047 22.0645 147.047 18.1387C147.047 14.7012 145.543 11.6152 142.535 8.88086C139.957 6.57617 135.973 4.87695 130.582 3.7832L137.291 0.589844H137.584C141.432 1.35156 144.732 3.09961 147.486 5.83398C150.826 9.1543 152.496 13.2461 152.496 18.1094C152.496 23.0703 149.938 27.5137 144.82 31.4395L154.107 44.7402L148.951 47.1719H148.658L139.869 34.6328C136.881 36.2734 133.678 37.5723 130.26 38.5293V44.5352L124.693 47.1719H124.4ZM201.715 47.1719C197.262 47.1719 193.648 45.7559 190.875 42.9238C188.238 40.2285 186.92 36.7617 186.92 32.5234V12.0156L201.715 0.589844C206.168 0.589844 209.781 2.00586 212.555 4.83789C215.191 7.5332 216.51 11 216.51 15.2383L210.943 17.875H210.65V15.2383C210.65 12.6211 209.947 10.502 208.541 8.88086C206.803 6.86914 204.527 5.86328 201.715 5.86328C198.883 5.86328 196.607 6.86914 194.889 8.88086C193.482 10.502 192.779 12.6211 192.779 15.2383V32.5234C192.779 35.1016 193.482 37.2207 194.889 38.8809C196.588 40.8926 198.863 41.8984 201.715 41.8984C204.508 41.8984 206.783 40.8926 208.541 38.8809C209.947 37.2598 210.65 35.1406 210.65 32.5234V30.707H200.016V30.4141L201.686 26.8984H216.51V35.7461L201.715 47.1719ZM247.271 46V45.707L248.941 42.1914H251.666V30.707H247.271V30.4141L248.941 26.8984H251.666V3.22656L254.771 1.76172H273.346V2.05469L271.676 5.57031H257.525V26.8984H271.295V27.1914L269.625 30.707H257.525V42.1914H277.535V42.4844L275.865 46H247.271ZM315.152 47.1719V5.57031H302.613V5.27734L304.283 1.76172H333.551V2.05469L331.881 5.57031H321.012V44.5352L315.445 47.1719H315.152Z" fill="#760023"/>
</svg>
