<svg viewBox="0 0 265 48" fill="none" xmlns="http://www.w3.org/2000/svg">
<path d="M0.623047 47.1719V3.22656L6.18945 0.589844H6.48242V35.5996C9.08008 34.7793 11.6484 33.5488 14.1875 31.9082L9.70508 25.4922L14.8613 23.0312H15.1543L18.8457 28.334C21.7949 25.4629 23.2695 22.0645 23.2695 18.1387C23.2695 14.7012 21.7656 11.6152 18.7578 8.88086C16.1797 6.57617 12.1953 4.87695 6.80469 3.7832L13.5137 0.589844H13.8066C17.6543 1.35156 20.9551 3.09961 23.709 5.83398C27.0488 9.1543 28.7188 13.2461 28.7188 18.1094C28.7188 23.0703 26.1602 27.5137 21.043 31.4395L30.3301 44.7402L25.1738 47.1719H24.8809L16.0918 34.6328C13.1035 36.2734 9.90039 37.5723 6.48242 38.5293V44.5352L0.916016 47.1719H0.623047ZM58.748 46V45.707L60.418 42.1914H63.1426V30.707H58.748V30.4141L60.418 26.8984H63.1426V3.22656L66.248 1.76172H84.8223V2.05469L83.1523 5.57031H69.002V26.8984H82.7715V27.1914L81.1016 30.707H69.002V42.1914H89.0117V42.4844L87.3418 46H58.748ZM133.426 47.1719C128.875 47.1719 125.262 45.7559 122.586 42.9238C119.949 40.1309 118.631 36.6641 118.631 32.5234L124.197 29.8867H124.49V32.5234C124.49 35.1016 125.193 37.2207 126.6 38.8809C128.299 40.8926 130.574 41.8984 133.426 41.8984C136.219 41.8984 138.494 40.8926 140.252 38.8809C141.658 37.2598 142.361 35.1406 142.361 32.5234C142.361 30.0039 141.785 28.0801 140.633 26.752C139.031 24.916 136.619 23.998 133.396 23.998C129.783 23.998 126.717 22.8262 124.197 20.4824C122.244 18.666 121.268 16.0977 121.268 12.7773V9.96484L133.426 0.589844C137.117 0.84375 139.959 1.78125 141.951 3.40234C144.373 5.375 145.584 8.27539 145.584 12.1035L140.018 14.7402H139.725V12.1035C139.725 9.70117 139.09 7.94336 137.82 6.83008C136.59 5.75586 135.125 5.21875 133.426 5.21875C131.531 5.21875 130.008 5.81445 128.855 7.00586C127.703 8.19727 127.127 9.89648 127.127 12.1035C127.127 14.2324 127.566 15.7852 128.445 16.7617C129.617 18.0703 131.268 18.7246 133.396 18.7246C138.064 18.7246 141.688 19.8379 144.266 22.0645C146.902 24.3496 148.221 27.8164 148.221 32.4648V35.7461L133.426 47.1719ZM177.811 46V45.707L179.48 42.1914H182.205V30.707H177.811V30.4141L179.48 26.8984H182.205V3.22656L185.311 1.76172H203.885V2.05469L202.215 5.57031H188.064V26.8984H201.834V27.1914L200.164 30.707H188.064V42.1914H208.074V42.4844L206.404 46H177.811ZM245.691 47.1719V5.57031H233.152V5.27734L234.822 1.76172H264.09V2.05469L262.42 5.57031H251.551V44.5352L245.984 47.1719H245.691Z" fill="#760023"/>
</svg>
