<svg viewBox="0 0 188 175" fill="none" xmlns="http://www.w3.org/2000/svg">
    <path d="M95.9219 27.0626C95.3403 26.5063 94.5665 26.1958 93.7617 26.1958C92.9569 26.1958 92.1831 26.5063 91.6016 27.0626L19.6875 95.7618C19.3821 96.054 19.1391 96.4051 18.9733 96.7938C18.8074 97.1826 18.7222 97.6009 18.7227 98.0236L18.7109 162.5C18.7109 165.815 20.0279 168.995 22.3721 171.339C24.7163 173.683 27.8957 175 31.2109 175H68.75C70.4076 175 71.9973 174.342 73.1694 173.17C74.3415 171.997 75 170.408 75 168.75V115.625C75 114.796 75.3292 114.001 75.9153 113.415C76.5013 112.829 77.2962 112.5 78.125 112.5H109.375C110.204 112.5 110.999 112.829 111.585 113.415C112.171 114.001 112.5 114.796 112.5 115.625V168.75C112.5 170.408 113.158 171.997 114.331 173.17C115.503 174.342 117.092 175 118.75 175H156.273C159.589 175 162.768 173.683 165.112 171.339C167.456 168.995 168.773 165.815 168.773 162.5V98.0236C168.774 97.6009 168.689 97.1826 168.523 96.7938C168.357 96.4051 168.114 96.054 167.809 95.7618L95.9219 27.0626Z" fill="white"/>
    <path d="M185.512 82.8711L156.293 54.918V12.5C156.293 10.8424 155.635 9.25268 154.463 8.08058C153.29 6.90848 151.701 6.25 150.043 6.25H131.293C129.636 6.25 128.046 6.90848 126.874 8.08058C125.702 9.25268 125.043 10.8424 125.043 12.5V25L102.418 3.36719C100.301 1.22656 97.1525 0 93.7502 0C90.3595 0 87.2189 1.22656 85.1017 3.37109L2.01577 82.8633C-0.413914 85.207 -0.718602 89.0625 1.49234 91.6016C2.04753 92.2425 2.72734 92.7637 3.49038 93.1335C4.25341 93.5033 5.08373 93.714 5.93078 93.7528C6.77783 93.7915 7.6239 93.6575 8.4175 93.3588C9.21111 93.0602 9.93565 92.6032 10.547 92.0156L91.6017 14.5625C92.1833 14.0062 92.9571 13.6957 93.7619 13.6957C94.5667 13.6957 95.3405 14.0062 95.922 14.5625L176.985 92.0156C178.179 93.1607 179.778 93.7857 181.432 93.7535C183.086 93.7212 184.66 93.0345 185.809 91.8437C188.207 89.3594 188.008 85.2578 185.512 82.8711Z" fill="white"/>
    <rect x="68.75" y="80" width="50" height="95" fill="white"/>
    <path d="M41.3246 127.92C38.0846 127.92 35.9246 126.63 34.4246 124.05L37.4846 121.77C38.3246 123.39 39.4946 124.08 40.7546 124.08C42.7346 124.08 43.7546 123.06 43.7546 120V105.3H48.1946V120.36C48.1946 124.53 46.0646 127.92 41.3246 127.92ZM62.3654 127.92C56.4554 127.92 52.4354 123.54 52.4354 116.31C52.4354 109.08 56.4554 104.91 62.3654 104.91C68.2454 104.91 72.2654 109.11 72.2654 116.31C72.2654 123.54 68.2454 127.92 62.3654 127.92ZM62.3654 124.08C65.6654 124.08 67.7654 121.05 67.7654 116.31C67.7654 111.57 65.6654 108.72 62.3654 108.72C59.0354 108.72 56.9654 111.57 56.9654 116.31C56.9654 121.05 59.0354 124.08 62.3654 124.08ZM76.6314 127.5V105.3H81.0714V127.5H76.6314ZM86.5337 127.5V105.3H91.0337L97.4837 117.15L99.7337 121.95H99.8837C99.6437 119.64 99.2837 116.67 99.2837 114.15V105.3H103.514V127.5H98.9837L92.5637 115.62L90.3137 110.88H90.1637C90.3737 113.25 90.7337 116.04 90.7337 118.62V127.5H86.5337ZM124.321 127.92C118.891 127.92 115.681 124.89 115.681 117.54V105.3H120.091V117.93C120.091 122.52 121.711 124.08 124.321 124.08C126.931 124.08 128.641 122.52 128.641 117.93V105.3H132.901V117.54C132.901 124.89 129.751 127.92 124.321 127.92ZM144.375 127.92C141.375 127.92 138.435 126.78 136.275 124.71L138.825 121.65C140.385 123.12 142.515 124.08 144.465 124.08C146.775 124.08 147.975 123.09 147.975 121.56C147.975 119.91 146.625 119.37 144.645 118.53L141.675 117.27C139.455 116.37 137.175 114.54 137.175 111.33C137.175 107.7 140.385 104.91 144.855 104.91C147.435 104.91 150.015 105.93 151.815 107.76L149.595 110.55C148.155 109.38 146.685 108.72 144.855 108.72C142.905 108.72 141.675 109.59 141.675 111.03C141.675 112.62 143.265 113.22 145.155 113.97L148.065 115.17C150.735 116.28 152.505 118.02 152.505 121.2C152.505 124.83 149.475 127.92 144.375 127.92Z" fill="#760023"/>
</svg>
