<svg  viewBox="0 0 308 48" fill="none" xmlns="http://www.w3.org/2000/svg">
<path d="M15.3438 47.2551L0.402344 3.07544L5.4707 0.673096H5.76367L18.7129 39.2278L31.5742 0.673096H31.8672L35.002 2.16724L20.7051 44.8528L15.6367 47.2551H15.3438ZM60.0801 46.0833V45.7903L61.75 42.2747H64.4746V30.7903H60.0801V30.4973L61.75 26.9817H64.4746V3.30981L67.5801 1.84497H86.1543V2.13794L84.4844 5.65356H70.334V26.9817H84.1035V27.2747L82.4336 30.7903H70.334V42.2747H90.3438V42.5676L88.6738 46.0833H60.0801ZM121.135 47.2551V3.30981L126.701 0.673096H126.994V35.6829C129.592 34.8625 132.16 33.6321 134.699 31.9915L130.217 25.5754L135.373 23.1145H135.666L139.357 28.4172C142.307 25.5461 143.781 22.1477 143.781 18.2219C143.781 14.7844 142.277 11.6985 139.27 8.96411C136.691 6.65942 132.707 4.96021 127.316 3.86646L134.025 0.673096H134.318C138.166 1.43481 141.467 3.18286 144.221 5.91724C147.561 9.23755 149.23 13.3293 149.23 18.1926C149.23 23.1536 146.672 27.5969 141.555 31.5227L150.842 44.8235L145.686 47.2551H145.393L136.604 34.7161C133.615 36.3567 130.412 37.6555 126.994 38.6125V44.6184L121.428 47.2551H121.135ZM183.654 47.2551V3.30981L189.221 0.673096H189.514V44.6184L183.947 47.2551H183.654ZM224.67 47.2551V30.7903H220.275V30.4973L221.945 26.9817H224.67V3.30981L227.775 1.84497H246.35V2.13794L244.68 5.65356H230.529V26.9817H244.299V27.2747L242.629 30.7903H230.529V44.6184L224.963 47.2551H224.67ZM288.42 47.2551V30.7903H280.012V30.4973L281.682 26.9817H286.955L276.232 3.10474L281.359 0.673096H281.652L292.756 25.8684L304.445 0.673096H304.738L307.814 2.13794L295.92 26.9817H304.035V27.2747L302.365 30.7903H294.279V44.6184L288.713 47.2551H288.42Z" fill="#760023"/>
</svg>
